<svg xmlns="http://www.w3.org/2000/svg" width="90" height="19" viewBox="0 0 90 19" fill="none">
  <path d="M78.8275 4.46847C78.2672 4.46847 77.7953 4.27997 77.4131 3.90297C77.0309 3.52597 76.8398 3.05797 76.8398 2.50157C76.8398 1.94517 77.0309 1.47847 77.4131 1.10017C77.7953 0.723168 78.262 0.534668 78.8132 0.534668C79.3644 0.534668 79.8285 0.723168 80.2068 1.10017C80.5851 1.47717 80.7736 1.94517 80.7736 2.50157C80.7736 3.05797 80.589 3.52597 80.2211 3.90297C79.8519 4.27997 79.3878 4.46847 78.8275 4.46847Z" fill="black"/>
  <path d="M46.702 14.9513C46.3601 15.1086 46.0026 15.1879 45.6269 15.1879C45.0757 15.1879 44.5804 15.0358 44.1384 14.729C43.6977 14.4235 43.3454 14.0205 43.0841 13.5226C42.8215 13.0234 42.6902 12.4865 42.6902 11.9093C42.6902 11.3321 42.8189 10.7796 43.0763 10.2778C43.231 9.97621 43.4182 9.70972 43.6405 9.47962C43.7861 9.32622 43.9473 9.18842 44.1241 9.06492C44.5648 8.75942 45.0653 8.60602 45.6256 8.60602C45.9922 8.60602 46.3484 8.68272 46.6942 8.83482C47.04 8.98822 47.3468 9.20922 47.6172 9.49651L50.8685 7.74022C50.2653 6.90172 49.51 6.23222 48.6013 5.73432C47.6926 5.23512 46.7007 4.98682 45.6256 4.98682C44.726 4.98682 43.8771 5.16622 43.0828 5.52372C42.3938 5.83442 41.7789 6.24782 41.2394 6.76392C41.1549 6.84322 41.0717 6.92642 40.9911 7.01222C40.3918 7.64532 39.9225 8.37982 39.5832 9.21442C39.2413 10.049 39.0723 10.946 39.0723 11.908C39.0723 13.1755 39.3674 14.3312 39.9563 15.3751C40.5465 16.4203 41.3369 17.2523 42.3288 17.8724C43.3207 18.4925 44.4205 18.8032 45.6256 18.8032C46.7007 18.8032 47.6926 18.5549 48.6013 18.0557C49.51 17.5578 50.2653 16.8974 50.8685 16.0771L47.6172 14.3208C47.3468 14.5834 47.0413 14.7927 46.7007 14.95L46.702 14.9513Z" fill="black"/>
  <path d="M15.028 13.1302C15.028 13.3317 15.0176 13.5293 14.9981 13.723C14.69 16.7611 12.0016 18.7618 8.11331 18.7618C7.98071 18.7618 7.84941 18.7592 7.71941 18.7553C5.76941 18.6968 4.07941 18.1937 2.81581 17.2928C1.61331 16.4361 0.789109 15.2076 0.412109 13.723H4.71121C5.18961 14.8878 6.24521 15.5586 7.71941 15.6379C7.81821 15.6431 7.9196 15.6457 8.021 15.6457C9.6785 15.6457 10.7926 14.8995 10.9447 13.7217C10.959 13.6281 10.9642 13.5332 10.9642 13.4344C10.9642 12.1344 9.90861 11.7145 8.87641 11.4766L5.26761 10.7122C2.20091 10.031 0.77091 8.49961 0.77091 5.89571C0.77091 2.56121 3.56461 0.23291 7.56341 0.23291C9.6291 0.23291 11.3971 0.77371 12.6737 1.79811C13.7241 2.63921 14.4378 3.79231 14.755 5.14821H10.7341C10.1699 3.94961 9.08961 3.31781 7.59331 3.31781C5.91631 3.31781 4.83341 4.12511 4.83341 5.37701C4.83341 6.05431 5.15841 6.93441 6.71321 7.27501L10.3688 8.12781C13.4589 8.86361 15.0267 10.5471 15.0267 13.1289L15.028 13.1302Z" fill="black"/>
  <path d="M38.7719 8.46952V4.99072C38.1194 4.99072 37.498 5.10772 36.9104 5.34302C36.3228 5.57962 35.8106 5.90592 35.3751 6.32322L35.3621 5.35602H31.7559L31.7689 18.4223H35.3751V11.1046C35.3751 10.6431 35.4843 10.2271 35.7014 9.85662C35.9198 9.48742 36.2162 9.19232 36.5906 8.97522C36.5906 8.97522 37.4421 8.46822 38.7719 8.46822V8.46952Z" fill="black"/>
  <path d="M29.9275 5.35602H26.4721L26.4786 6.79382C25.2007 4.99072 22.6371 4.99072 22.6371 4.99072C21.705 4.99072 20.8366 5.16492 20.0306 5.51332C19.2246 5.86172 18.5122 6.34532 17.8947 6.96412C17.2759 7.58292 16.7975 8.29662 16.4569 9.10652C16.1176 9.91642 15.9473 10.7952 15.9473 11.8768C15.9473 12.9584 16.1176 13.8372 16.4569 14.6471C16.7962 15.457 17.2759 16.172 17.8947 16.7895C18.5135 17.4083 19.2259 17.8906 20.0306 18.2403C20.8366 18.5887 21.705 18.7629 22.6371 18.7629C22.6371 18.7629 25.2007 18.7629 26.4786 16.9598L26.4721 18.3976H29.9275V5.35732V5.35602ZM25.6154 13.5876C25.3359 14.1011 24.9576 14.5106 24.4792 14.8161C23.9995 15.1203 23.4639 15.2737 22.8724 15.2737C22.2809 15.2737 21.7271 15.1216 21.2396 14.8161C20.7521 14.5106 20.3647 14.0998 20.0761 13.5811C19.7914 13.0663 19.6471 12.4982 19.6458 11.8755C19.6484 11.2541 19.7914 10.6847 20.0761 10.1699C20.3634 9.65252 20.7508 9.24042 21.2396 8.93492C21.7271 8.63072 22.2718 8.47732 22.8724 8.47732C23.473 8.47732 24.0008 8.62942 24.4792 8.93492C24.9576 9.24042 25.3372 9.64992 25.6154 10.1634C25.8923 10.6743 26.0314 11.245 26.0327 11.8755C26.0314 12.506 25.891 13.0767 25.6154 13.5876Z" fill="black"/>
  <path d="M64.0149 11.7065C63.9291 7.98202 61.0379 4.99072 57.4837 4.99072C53.9295 4.99072 50.9512 8.07302 50.9512 11.8768C50.9512 15.6806 53.8762 18.7616 57.4837 18.7616C61.0912 18.7616 64.0162 15.6793 64.0162 11.8768C64.0162 11.8196 64.0162 11.7637 64.0136 11.7065H64.0149ZM57.4837 15.1554C55.8665 15.1554 54.5561 13.6864 54.5561 11.8755C54.5561 10.0646 55.8665 8.59562 57.4837 8.59562C59.1009 8.59562 60.3281 9.97362 60.4074 11.7052C60.41 11.7624 60.4113 11.8183 60.4113 11.8755C60.4113 13.6864 59.0996 15.1554 57.4837 15.1554Z" fill="black"/>
  <path d="M77.0039 5.57178H80.6101V18.4353H77.0039V5.57178Z" fill="black"/>
  <path d="M89.5813 5.57184V9.10004H87.5039V18.4353H83.8977V9.10004H81.8203V5.57184H83.8977V0.73584H87.5039V5.57184H89.5813Z" fill="black"/>
  <path d="M75.8613 4.26534V0.73584H68.8621H65.2559V4.26534V18.4353H68.8621V10.7289H74.8291V7.19944H68.8621V4.26534H75.8613Z" fill="black"/>
</svg>