<svg width="630" height="400" viewBox="0 0 630 400" fill="none" xmlns="http://www.w3.org/2000/svg">
<g clip-path="url(#clip0_3095_38753)">
<path d="M326.88 372.79C324.47 373.9 321.94 374.46 319.29 374.46C315.4 374.46 311.9 373.38 308.78 371.22C305.67 369.06 303.18 366.22 301.33 362.7C299.48 359.18 298.55 355.39 298.55 351.31C298.55 347.23 299.46 343.34 301.28 339.79C302.37 337.66 303.7 335.78 305.27 334.16C306.3 333.08 307.44 332.1 308.69 331.24C311.8 329.08 315.34 328 319.29 328C321.88 328 324.4 328.54 326.83 329.62C329.27 330.7 331.44 332.26 333.35 334.29L356.31 321.89C352.05 315.97 346.72 311.24 340.3 307.73C333.88 304.21 326.88 302.45 319.29 302.45C312.93 302.45 306.95 303.71 301.33 306.24C296.47 308.44 292.13 311.35 288.31 315C287.71 315.56 287.13 316.15 286.56 316.75C282.33 321.22 279.02 326.4 276.61 332.3C274.2 338.19 273 344.53 273 351.32C273 360.27 275.08 368.44 279.24 375.8C283.41 383.18 288.99 389.05 295.99 393.44C303 397.82 310.76 400.01 319.27 400.01C326.86 400.01 333.86 398.25 340.28 394.73C346.7 391.22 352.03 386.55 356.29 380.75L333.33 368.34C331.42 370.19 329.26 371.67 326.86 372.79H326.88Z" fill="white"/>
<path d="M103.2 359.92C103.2 361.34 103.13 362.74 102.99 364.11C100.82 385.57 81.8305 399.69 54.3705 399.69C53.4305 399.69 52.5105 399.68 51.5905 399.65C37.8205 399.23 25.8805 395.68 16.9605 389.32C8.47047 383.27 2.64047 374.59 -0.0195312 364.11H30.3405C33.7205 372.33 41.1705 377.07 51.5805 377.63C52.2805 377.66 52.9905 377.69 53.7105 377.69C65.4105 377.69 73.2805 372.42 74.3605 364.1C74.4605 363.44 74.5005 362.77 74.5005 362.07C74.5005 352.89 67.0505 349.93 59.7505 348.25L34.2605 342.85C12.6005 338.04 2.50047 327.23 2.50047 308.83C2.50047 285.28 22.2305 268.84 50.4605 268.84C65.0505 268.84 77.5305 272.66 86.5505 279.89C93.9705 285.83 99.0105 293.97 101.25 303.55H72.8505C68.8705 295.08 61.2405 290.62 50.6705 290.62C38.8305 290.62 31.1805 296.32 31.1805 305.16C31.1805 309.95 33.4805 316.16 44.4505 318.56L70.2705 324.58C92.0905 329.78 103.16 341.66 103.16 359.9L103.2 359.92Z" fill="white"/>
<path d="M270.88 327.01V302.44C266.27 302.44 261.88 303.27 257.73 304.93C253.58 306.6 249.96 308.9 246.89 311.86L246.8 305.03H221.34L221.43 397.3H246.89V345.63C246.89 342.37 247.66 339.43 249.2 336.82C250.74 334.21 252.83 332.13 255.48 330.6C255.48 330.6 261.49 327.02 270.89 327.02L270.88 327.01Z" fill="white"/>
<path d="M208.42 305.02H184.02L184.06 315.17C175.04 302.44 156.93 302.44 156.93 302.44C150.35 302.44 144.21 303.67 138.52 306.13C132.83 308.59 127.8 312 123.43 316.37C119.06 320.74 115.68 325.78 113.28 331.5C110.88 337.22 109.68 343.42 109.68 351.06C109.68 358.7 110.88 364.9 113.28 370.62C115.68 376.34 119.06 381.39 123.43 385.75C127.8 390.12 132.83 393.53 138.52 395.99C144.21 398.45 150.35 399.68 156.93 399.68C156.93 399.68 175.04 399.68 184.06 386.95L184.02 397.1H208.42V305.01V305.02ZM177.97 363.15C176 366.78 173.32 369.67 169.94 371.82C166.56 373.97 162.77 375.05 158.59 375.05C154.41 375.05 150.5 373.97 147.06 371.82C143.61 369.67 140.88 366.76 138.85 363.1C136.84 359.46 135.82 355.45 135.81 351.06C135.82 346.67 136.84 342.65 138.85 339.02C140.88 335.36 143.62 332.45 147.06 330.3C150.51 328.15 154.35 327.07 158.59 327.07C162.83 327.07 166.56 328.15 169.94 330.3C173.32 332.45 176 335.34 177.97 338.97C179.92 342.58 180.91 346.61 180.92 351.06C180.91 355.51 179.92 359.54 177.97 363.15Z" fill="white"/>
<path d="M449.13 349.86C448.53 323.56 428.1 302.43 403.01 302.43C377.92 302.43 356.87 324.2 356.87 351.06C356.87 377.92 377.53 399.68 403.01 399.68C428.49 399.68 449.15 377.91 449.15 351.06C449.15 350.66 449.15 350.26 449.14 349.86H449.13ZM403.01 374.22C391.59 374.22 382.34 363.85 382.34 351.06C382.34 338.27 391.59 327.89 403.01 327.89C414.43 327.89 423.1 337.62 423.65 349.85C423.67 350.25 423.68 350.65 423.68 351.05C423.68 363.84 414.42 374.21 403.01 374.21V374.22Z" fill="white"/>
<path d="M540.87 306.54H566.34V397.38H540.87V306.54Z" fill="white"/>
<path d="M553.75 298.75C549.8 298.75 546.46 297.42 543.76 294.75C541.06 292.09 539.71 288.79 539.71 284.86C539.71 280.93 541.06 277.63 543.76 274.97C546.46 272.31 549.76 270.97 553.65 270.97C557.54 270.97 560.82 272.3 563.49 274.97C566.16 277.64 567.49 280.93 567.49 284.86C567.49 288.79 566.19 292.09 563.58 294.75C560.97 297.42 557.69 298.75 553.74 298.75H553.75Z" fill="white"/>
<path d="M629.69 306.54V331.47H615.02V397.38H589.54V331.47H574.87V306.54H589.54V272.4H615.02V306.54H629.69Z" fill="white"/>
<path d="M532.8 297.32V272.4H483.37H457.91V297.32V397.38H483.37V342.96H525.5V318.04H483.37V297.32H532.8Z" fill="white"/>
<path d="M432.81 78.7H354.14V157.38H432.81V78.7Z" fill="white"/>
<path d="M354.13 157.38H275.45V236.06H354.13V157.38Z" fill="white"/>
<path d="M196.87 83.63C241.52 79.92 276.82 44.66 280.58 0H349.12C347.44 39.88 330.99 77.32 302.59 105.72C274.19 134.12 236.75 150.57 196.87 152.25V83.62V83.63Z" fill="white"/>
</g>
<defs>
<clipPath id="clip0_3095_38753">
<rect width="629.69" height="400" fill="white"/>
</clipPath>
</defs>
</svg>
