<svg xmlns="http://www.w3.org/2000/svg" width="180" height="116" viewBox="0 0 180 116" fill="none">
  <g clip-path="url(#clip0_180_22364)">
    <path d="M93.4409 107.393C92.752 107.71 92.0288 107.87 91.2713 107.87C90.1593 107.87 89.1588 107.562 88.267 106.944C87.3779 106.327 86.6662 105.515 86.1373 104.509C85.6085 103.502 85.3427 102.419 85.3427 101.253C85.3427 100.086 85.6028 98.9744 86.123 97.9597C86.4346 97.3508 86.8148 96.8134 87.2636 96.3503C87.558 96.0416 87.8839 95.7614 88.2412 95.5156C89.1302 94.8981 90.1422 94.5894 91.2713 94.5894C92.0117 94.5894 92.732 94.7438 93.4266 95.0525C94.1241 95.3612 94.7444 95.8072 95.2904 96.3874L101.854 92.8428C100.636 91.1506 99.1123 89.7985 97.2771 88.7951C95.4419 87.7889 93.4409 87.2858 91.2713 87.2858C89.4533 87.2858 87.7438 87.646 86.1373 88.3692C84.7481 88.9981 83.5075 89.8299 82.4155 90.8733C82.244 91.0334 82.0782 91.202 81.9153 91.3735C80.7061 92.6513 79.7599 94.132 79.071 95.8186C78.3821 97.5023 78.0391 99.3146 78.0391 101.256C78.0391 103.814 78.6336 106.149 79.8228 108.253C81.0148 110.363 82.6099 112.041 84.6109 113.296C86.6147 114.548 88.8329 115.174 91.2656 115.174C93.4352 115.174 95.4362 114.671 97.2714 113.665C99.1066 112.661 100.63 111.326 101.848 109.668L95.2847 106.121C94.7387 106.65 94.1213 107.073 93.4352 107.393H93.4409Z" fill="black"/>
    <path d="M29.502 103.714C29.502 104.12 29.482 104.52 29.442 104.912C28.8217 111.046 23.3933 115.082 15.5437 115.082C15.275 115.082 15.0121 115.079 14.7491 115.071C10.8128 114.951 7.39974 113.936 4.84991 112.118C2.423 110.389 0.756468 107.907 -0.00390625 104.912H8.67465C9.64084 107.261 11.7705 108.616 14.7462 108.776C14.9463 108.785 15.1493 108.794 15.3551 108.794C18.6996 108.794 20.9493 107.287 21.258 104.909C21.2866 104.72 21.298 104.529 21.298 104.328C21.298 101.704 19.1684 100.858 17.0816 100.378L9.7952 98.8343C3.60358 97.4594 0.716448 94.3693 0.716448 89.1096C0.716448 82.3777 6.35637 77.6782 14.4261 77.6782C18.5967 77.6782 22.1641 78.7702 24.7426 80.8369C26.8636 82.5349 28.3043 84.8618 28.9446 87.6002H20.8263C19.6886 85.1791 17.5076 83.9041 14.4861 83.9041C11.1016 83.9041 8.91477 85.5335 8.91477 88.0605C8.91477 89.4297 9.57223 91.2049 12.7081 91.8909L20.0888 93.6118C26.3262 95.0982 29.4906 98.4942 29.4906 103.708L29.502 103.714Z" fill="black"/>
    <path d="M77.4308 94.3064V87.283C76.113 87.283 74.8581 87.5202 73.6718 87.9947C72.4855 88.4721 71.4507 89.1296 70.5731 89.9757L70.5474 88.0233H63.2695L63.2953 114.399H70.5731V99.629C70.5731 98.6971 70.7932 97.8567 71.2334 97.1107C71.6737 96.3646 72.2711 95.77 73.0286 95.3326C73.0286 95.3326 74.7466 94.3093 77.4336 94.3093L77.4308 94.3064Z" fill="black"/>
    <path d="M59.5769 88.0205H52.602L52.6135 90.9219C50.035 87.283 44.8582 87.283 44.8582 87.283C42.9773 87.283 41.2221 87.6346 39.5956 88.3378C37.9691 89.041 36.5313 90.0157 35.2821 91.2649C34.0329 92.5141 33.0667 93.9548 32.3806 95.5899C31.6946 97.225 31.3516 98.9973 31.3516 101.181C31.3516 103.365 31.6946 105.137 32.3806 106.773C33.0667 108.408 34.0329 109.851 35.2821 111.098C36.5313 112.347 37.9691 113.321 39.5956 114.025C41.2221 114.728 42.9773 115.079 44.8582 115.079C44.8582 115.079 50.035 115.079 52.6135 111.441L52.602 114.342H59.5769V88.0176V88.0205ZM50.8726 104.637C50.3095 105.675 49.5434 106.501 48.5772 107.116C47.611 107.73 46.5276 108.039 45.3327 108.039C44.1379 108.039 43.0202 107.73 42.0368 107.116C41.0506 106.501 40.2702 105.669 39.69 104.623C39.1154 103.582 38.8238 102.436 38.821 101.181C38.8238 99.9263 39.1154 98.7772 39.69 97.7395C40.2702 96.6933 41.0535 95.8615 42.0368 95.2469C43.023 94.6323 44.1207 94.3236 45.3327 94.3236C46.5448 94.3236 47.611 94.6323 48.5772 95.2469C49.5434 95.8615 50.3095 96.6876 50.8726 97.7252C51.43 98.7572 51.713 99.9092 51.7159 101.181C51.713 102.453 51.43 103.605 50.8726 104.637Z" fill="black"/>
    <path d="M128.385 100.838C128.213 93.3202 122.373 87.2801 115.201 87.2801C108.029 87.2801 102.012 93.5032 102.012 101.181C102.012 108.859 107.917 115.079 115.201 115.079C122.485 115.079 128.39 108.856 128.39 101.181C128.39 101.067 128.39 100.953 128.388 100.838H128.385ZM115.201 107.802C111.937 107.802 109.292 104.837 109.292 101.181C109.292 97.5251 111.937 94.558 115.201 94.558C118.466 94.558 120.944 97.3393 121.101 100.835C121.107 100.95 121.11 101.064 121.11 101.178C121.11 104.834 118.463 107.799 115.201 107.799V107.802Z" fill="black"/>
    <path d="M154.609 88.455H161.89V114.422H154.609V88.455Z" fill="black"/>
    <path d="M158.291 86.2282C157.162 86.2282 156.207 85.848 155.435 85.0847C154.663 84.3244 154.277 83.381 154.277 82.2576C154.277 81.1342 154.663 80.1909 155.435 79.4305C156.207 78.6702 157.15 78.2871 158.262 78.2871C159.374 78.2871 160.312 78.6673 161.075 79.4305C161.838 80.1938 162.218 81.1342 162.218 82.2576C162.218 83.381 161.847 84.3244 161.101 85.0847C160.355 85.848 159.417 86.2282 158.288 86.2282H158.291Z" fill="black"/>
    <path d="M179.999 88.455V95.5813H175.805V114.422H168.522V95.5813H164.328V88.455H168.522V78.6959H175.805V88.455H179.999Z" fill="black"/>
    <path d="M152.302 85.8194V78.6959H138.172H130.895V85.8194V114.422H138.172V98.8658H150.215V91.7423H138.172V85.8194H152.302Z" fill="black"/>
    <path d="M123.723 23.3258H101.234V45.8169H123.723V23.3258Z" fill="#004DF5"/>
    <path d="M101.229 45.8169H78.7383V68.308H101.229V45.8169Z" fill="#004DF5"/>
    <path d="M56.2773 24.735C69.0408 23.6745 79.1314 13.5953 80.2063 0.828979H99.7988C99.3185 12.2289 94.6162 22.9313 86.4979 31.0496C78.3796 39.1678 67.6772 43.8702 56.2773 44.3504V24.7322V24.735Z" fill="#004DF5"/>
  </g>
  <defs>
    <clipPath id="clip0_180_22364">
      <rect width="180" height="114.342" transform="translate(0 0.828979)"/>
    </clipPath>
  </defs>
</svg>