<svg xmlns="http://www.w3.org/2000/svg" width="20" height="20" viewBox="0 0 20 20" fill="none">
<path fill-rule="evenodd" clip-rule="evenodd" d="M16.4225 3.57745C16.7229 3.87786 16.746 4.35055 16.4918 4.67746L16.4225 4.75596L11.1783 9.99994L16.4225 15.2441C16.7479 15.5696 16.7479 16.0972 16.4225 16.4226C16.1221 16.723 15.6494 16.7461 15.3225 16.492L15.244 16.4226L9.99981 11.1784L4.75584 16.4226C4.4304 16.7481 3.90277 16.7481 3.57733 16.4226C3.27693 16.1222 3.25382 15.6495 3.50801 15.3226L3.57733 15.2441L8.82138 9.99994L3.57733 4.75596C3.25189 4.43053 3.25189 3.90289 3.57733 3.57745C3.87773 3.27705 4.35043 3.25394 4.67733 3.50813L4.75584 3.57745L9.99981 8.8215L15.244 3.57745C15.5694 3.25201 16.0971 3.25201 16.4225 3.57745Z" fill="black"/>
</svg>