<svg xmlns="http://www.w3.org/2000/svg" width="24" height="24" viewBox="0 0 24 24" fill="none">
<path d="M13.1621 6.05894C12.7806 6.01767 12.393 5.99402 12 5.98814C10.2829 5.99575 8.50296 6.41342 6.81812 7.21374C5.56715 7.83244 4.34857 8.70589 3.29028 9.7833C2.77053 10.3333 2.10718 11.1297 2 11.9793C2.01267 12.7154 2.80255 13.6238 3.29028 14.1754C4.28267 15.2105 5.46952 16.059 6.81812 16.745C6.86395 16.7672 6.90995 16.7892 6.95605 16.8109L5.70485 18.9959L7.40494 20.0007L16.5952 4.00013L14.9588 3L13.1621 6.05894ZM17.0427 7.15025L15.7939 9.31454C16.3684 10.0609 16.7095 10.9813 16.7095 11.9793C16.7095 14.467 14.6008 16.4837 11.9988 16.4837C11.8863 16.4837 11.7773 16.4716 11.6667 16.4642L10.8403 17.8949C11.2215 17.9357 11.6068 17.9654 12 17.9706C13.7187 17.9628 15.4977 17.5404 17.1807 16.745C18.4316 16.1263 19.6514 15.2528 20.7097 14.1754C21.2295 13.6254 21.8928 12.829 22 11.9793C21.9873 11.2433 21.1975 10.3349 20.7097 9.78329C19.7173 8.74819 18.5293 7.89974 17.1807 7.2137C17.1351 7.19164 17.0885 7.17179 17.0427 7.15025ZM11.9988 7.47497C12.1129 7.47497 12.2261 7.47954 12.3381 7.48717L11.3701 9.16319C10.0116 9.43862 8.99219 10.5945 8.99219 11.9781C8.99219 12.3257 9.05621 12.6585 9.17407 12.9669C9.17421 12.9672 9.17394 12.9678 9.17407 12.9681L8.20361 14.649C7.62775 13.902 7.28807 12.9785 7.28807 11.9793C7.28809 9.49174 9.39681 7.47495 11.9988 7.47497ZM14.8149 11.0089L12.6336 14.7882C13.9848 14.5076 14.9968 13.3569 14.9968 11.9781C14.9968 11.6369 14.9287 11.3125 14.8149 11.0089Z" fill="#7B7B7B"/>
</svg>